<svg width="132" height="40" viewBox="0 0 132 40" fill="none" xmlns="http://www.w3.org/2000/svg">
<rect width="132" height="40" rx="10" fill="#EAC203"/>
<path d="M48.2701 14.969V16.075H43.4541V19.407H47.3531V20.471H43.4541V23.894H48.2701V25H42.0891V14.969H48.2701ZM50.0279 25V17.909H50.7699C50.9472 17.909 51.0592 17.9953 51.1059 18.168L51.2039 18.938C51.5119 18.5973 51.8549 18.322 52.2329 18.112C52.6155 17.902 53.0565 17.797 53.5559 17.797C53.9432 17.797 54.2839 17.8623 54.5779 17.993C54.8765 18.119 55.1239 18.301 55.3199 18.539C55.5205 18.7723 55.6722 19.0547 55.7749 19.386C55.8775 19.7173 55.9289 20.0837 55.9289 20.485V25H54.6829V20.485C54.6829 19.9483 54.5592 19.533 54.3119 19.239C54.0692 18.9403 53.6959 18.791 53.1919 18.791C52.8232 18.791 52.4779 18.8797 52.1559 19.057C51.8385 19.2343 51.5445 19.4747 51.2739 19.778V25H50.0279ZM56.6924 17.909H57.7144C57.8124 17.909 57.8941 17.9347 57.9594 17.986C58.0247 18.0373 58.0714 18.098 58.0994 18.168L59.8984 22.732C59.9637 22.9 60.0151 23.068 60.0524 23.236C60.0897 23.404 60.1247 23.5697 60.1574 23.733C60.1947 23.5697 60.2344 23.404 60.2764 23.236C60.3184 23.068 60.3721 22.9 60.4374 22.732L62.2574 18.168C62.2854 18.0933 62.3297 18.0327 62.3904 17.986C62.4557 17.9347 62.5351 17.909 62.6284 17.909H63.6014L60.7104 25H59.5834L56.6924 17.909ZM67.4447 17.797C67.9627 17.797 68.4294 17.8833 68.8447 18.056C69.2647 18.2287 69.6194 18.4737 69.9087 18.791C70.2027 19.1083 70.4267 19.4933 70.5807 19.946C70.7394 20.394 70.8187 20.8957 70.8187 21.451C70.8187 22.011 70.7394 22.515 70.5807 22.963C70.4267 23.411 70.2027 23.7937 69.9087 24.111C69.6194 24.4283 69.2647 24.6733 68.8447 24.846C68.4294 25.014 67.9627 25.098 67.4447 25.098C66.9267 25.098 66.4577 25.014 66.0377 24.846C65.6224 24.6733 65.2677 24.4283 64.9737 24.111C64.6797 23.7937 64.4534 23.411 64.2947 22.963C64.1361 22.515 64.0567 22.011 64.0567 21.451C64.0567 20.8957 64.1361 20.394 64.2947 19.946C64.4534 19.4933 64.6797 19.1083 64.9737 18.791C65.2677 18.4737 65.6224 18.2287 66.0377 18.056C66.4577 17.8833 66.9267 17.797 67.4447 17.797ZM67.4447 24.125C68.1447 24.125 68.6674 23.8917 69.0127 23.425C69.3581 22.9537 69.5307 22.298 69.5307 21.458C69.5307 20.6133 69.3581 19.9553 69.0127 19.484C68.6674 19.0127 68.1447 18.777 67.4447 18.777C67.0901 18.777 66.7821 18.8377 66.5207 18.959C66.2594 19.0803 66.0401 19.2553 65.8627 19.484C65.6901 19.7127 65.5594 19.995 65.4707 20.331C65.3867 20.6623 65.3447 21.038 65.3447 21.458C65.3447 21.878 65.3867 22.2537 65.4707 22.585C65.5594 22.9163 65.6901 23.1963 65.8627 23.425C66.0401 23.649 66.2594 23.8217 66.5207 23.943C66.7821 24.0643 67.0901 24.125 67.4447 24.125ZM74.2553 27.093C74.2133 27.1863 74.1596 27.261 74.0943 27.317C74.0336 27.373 73.938 27.401 73.8073 27.401H72.8833L74.1783 24.587L71.2523 17.909H72.3303C72.4376 17.909 72.5216 17.937 72.5823 17.993C72.643 18.0443 72.6873 18.1027 72.7153 18.168L74.6123 22.634C74.6543 22.7367 74.6893 22.8393 74.7173 22.942C74.75 23.0447 74.778 23.1497 74.8013 23.257C74.834 23.1497 74.8666 23.0447 74.8993 22.942C74.932 22.8393 74.9693 22.7343 75.0113 22.627L76.8523 18.168C76.8803 18.0933 76.927 18.0327 76.9923 17.986C77.0623 17.9347 77.137 17.909 77.2163 17.909H78.2103L74.2553 27.093ZM81.9696 17.797C82.3943 17.797 82.7863 17.8693 83.1456 18.014C83.505 18.154 83.8153 18.3593 84.0766 18.63C84.338 18.896 84.541 19.2273 84.6856 19.624C84.835 20.016 84.9096 20.464 84.9096 20.968C84.9096 21.164 84.8886 21.2947 84.8466 21.36C84.8046 21.4253 84.7253 21.458 84.6086 21.458H79.8906C79.9 21.906 79.9606 22.2957 80.0726 22.627C80.1846 22.9583 80.3386 23.236 80.5346 23.46C80.7306 23.6793 80.964 23.845 81.2346 23.957C81.5053 24.0643 81.8086 24.118 82.1446 24.118C82.4573 24.118 82.7256 24.083 82.9496 24.013C83.1783 23.9383 83.3743 23.859 83.5376 23.775C83.701 23.691 83.8363 23.614 83.9436 23.544C84.0556 23.4693 84.1513 23.432 84.2306 23.432C84.3333 23.432 84.4126 23.4717 84.4686 23.551L84.8186 24.006C84.6646 24.1927 84.4803 24.356 84.2656 24.496C84.051 24.6313 83.82 24.7433 83.5726 24.832C83.33 24.9207 83.078 24.986 82.8166 25.028C82.5553 25.0747 82.2963 25.098 82.0396 25.098C81.5496 25.098 81.097 25.0163 80.6816 24.853C80.271 24.685 79.914 24.4423 79.6106 24.125C79.312 23.803 79.0786 23.4063 78.9106 22.935C78.7426 22.4637 78.6586 21.9223 78.6586 21.311C78.6586 20.8163 78.7333 20.3543 78.8826 19.925C79.0366 19.4957 79.256 19.1247 79.5406 18.812C79.8253 18.4947 80.173 18.2473 80.5836 18.07C80.9943 17.888 81.4563 17.797 81.9696 17.797ZM81.9976 18.714C81.3956 18.714 80.922 18.889 80.5766 19.239C80.2313 19.5843 80.0166 20.065 79.9326 20.681H83.7896C83.7896 20.3917 83.75 20.128 83.6706 19.89C83.5913 19.6473 83.4746 19.4397 83.3206 19.267C83.1666 19.0897 82.9776 18.9543 82.7536 18.861C82.5343 18.763 82.2823 18.714 81.9976 18.714ZM86.5044 25V17.909H87.2184C87.3538 17.909 87.4471 17.9347 87.4984 17.986C87.5498 18.0373 87.5848 18.126 87.6034 18.252L87.6874 19.358C87.9301 18.8633 88.2288 18.4783 88.5834 18.203C88.9428 17.923 89.3628 17.783 89.8434 17.783C90.0394 17.783 90.2168 17.8063 90.3754 17.853C90.5341 17.895 90.6811 17.9557 90.8164 18.035L90.6554 18.966C90.6228 19.0827 90.5504 19.141 90.4384 19.141C90.3731 19.141 90.2728 19.12 90.1374 19.078C90.0021 19.0313 89.8131 19.008 89.5704 19.008C89.1364 19.008 88.7724 19.134 88.4784 19.386C88.1891 19.638 87.9464 20.0043 87.7504 20.485V25H86.5044Z" fill="white"/>
</svg>
